<svg class="apricot-tree" viewBox="0 0 277.63 329.05" xmlns="http://www.w3.org/2000/svg" xmlns:xlink="http://www.w3.org/1999/xlink"><style>@keyframes apricot-tree_animation_growth{0%{transform:translate(50%,100%) scale(0,0)}to{transform:translate(50%,10%) scale(1,1)}}@keyframes apricot-tree__branch_animation_growth{0%{transform:translate(0%,50%) scale(0,0)}to{transform:translate(0%,0%) scale(1,1)}}</style><defs><ellipse id="apricot" class="apricot-tree__apricot" cx="-21.923" cy="24.5" rx="11.717" ry="14.363" fill="#ff7b33"><animate attributeName="rx" attributeType="XML" begin="0s" dur="2s" from="0" repeatCount="1" to="0"/><animate attributeName="ry" attributeType="XML" begin="0s" dur="2s" from="0" repeatCount="1" to="0"/><animate attributeName="rx" attributeType="XML" begin="2s" dur="2s" from="0" repeatCount="1" to="11.717"/><animate attributeName="ry" attributeType="XML" begin="2s" dur="2s" from="0" repeatCount="1" to="14.363"/><animate attributeName="cy" attributeType="XML" begin="2s" dur="2s" from="12.25" repeatCount="1" to="24.5"/><animate attributeName="fill" attributeType="XML" begin="2s" dur="3s" from="#008000" repeatCount="1" to="#ff7b33"/></ellipse><path id="sheet_size_big" class="apricot-tree__sheet apricot-tree__sheet_size_big" d="M-4.1564 4.9354c-4.4004 10.985-17.407 21.115-26.463 17.879 4.7744-7.0848 3.954-9.3297 5.5218-13.641-2.1802 4.7242-3.9446 10.589-6.9779 13.012-6.2447-6.0483-7.6198-20.597-1.8068-31.57 10.276-14.751 16.953-12.481 26.864-23.721-2.8547 12.996 9.7252 21.102 2.8615 38.041" fill="#186b21"><animate attributeName="d" begin="0s" dur="1.5s" repeatCount="1" values="m -31.301383,23.40552 c -0.0365,0.01236 -0.144382,0.02375 -0.219497,0.02011 0.0396,-0.008 0.0328,-0.01049 0.0458,-0.01534 -0.01808,0.0053 -0.03272,0.01191 -0.05788,0.01464 -0.0518,-0.0068 -0.0632,-0.02317 -0.01499,-0.03551 0.08523,-0.01659 0.140616,-0.01404 0.222823,-0.02668 -0.02368,0.01462 0.08067,0.02374 0.02374,0.04279; m-4.1564 4.9354c-4.4004 10.985-17.407 21.115-26.463 17.879 4.7744-7.0848 3.954-9.3297 5.5218-13.641-2.1802 4.7242-3.9446 10.589-6.9779 13.012-6.2447-6.0483-7.6198-20.597-1.8068-31.57 10.276-14.751 16.953-12.481 26.864-23.721-2.8547 12.996 9.7252 21.102 2.8615 38.041"/></path><path id="sheet_size_small" class="apricot-tree__sheet apricot-tree__sheet_size_small" d="M45.521 148.76c4.4784 2.1113 8.3317 7.7243 6.6922 11.343-2.8286-2.1549-3.797-1.882-5.5593-2.6453 1.9171 1.0259 4.3261 1.9135 5.2501 3.2242-2.7339 2.3884-8.8878 2.543-13.318-.1467-5.8789-4.6242-4.7186-7.2956-9.134-11.672 5.3711 1.5346 9.1651-3.3913 16.069-.10361" fill="#186b21"><animate attributeName="d" begin="0s" dur="0.5s" repeatCount="1" values="m55.521 158.76"/><animate attributeName="d" begin="0.5s" dur="3s" repeatCount="1" values="m57.521 160.76 c -0.0365,0.01236 -0.144382,0.02375 -0.219497,0.02011 0.0396,-0.008 0.0328,-0.01049 0.0458,-0.01534 -0.01808,0.0053 -0.03272,0.01191 -0.05788,0.01464 -0.0518,-0.0068 -0.0632,-0.02317 -0.01499,-0.03551 0.08523,-0.01659 0.140616,-0.01404 0.222823,-0.02668 -0.02368,0.01462 0.08067,0.02374 0.02374,0.04279;m45.521 148.76c4.4784 2.1113 8.3317 7.7243 6.6922 11.343-2.8286-2.1549-3.797-1.882-5.5593-2.6453 1.9171 1.0259 4.3261 1.9135 5.2501 3.2242-2.7339 2.3884-8.8878 2.543-13.318-0.1467-5.8789-4.6242-4.7186-7.2956-9.134-11.672 5.3711 1.5346 9.1651-3.3913 16.069-0.10361"/></path><path id="sheet_size_medium" class="apricot-tree__sheet apricot-tree__sheet_size_medium" d="M27.139 26.993c7.517 4.3643 13.554 14.667 10.304 20.645-4.6546-4.1733-6.3628-3.8587-9.3286-5.4598 3.204 2.0788 7.2756 3.9985 8.7274 6.4083-5.0057 3.6783-15.682 2.9519-23.049-2.4022-9.6577-8.9245-7.3452-13.345-14.496-21.606 9.1286 3.5136 16.258-4.3704 27.842 2.4144" fill="#186b21"><animate attributeName="d" begin="0s" dur="2s" repeatCount="1" values="m41 50 c -0.0365,0.01236 -0.144382,0.02375 -0.219497,0.02011 0.0396,-0.008 0.0328,-0.01049 0.0458,-0.01534 -0.01808,0.0053 -0.03272,0.01191 -0.05788,0.01464 -0.0518,-0.0068 -0.0632,-0.02317 -0.01499,-0.03551 0.08523,-0.01659 0.140616,-0.01404 0.222823,-0.02668 -0.02368,0.01462 0.08067,0.02374 0.02374,0.04279; m27.139 26.993c7.517 4.3643 13.554 14.667 10.304 20.645-4.6546-4.1733-6.3628-3.8587-9.3286-5.4598 3.204 2.0788 7.2756 3.9985 8.7274 6.4083-5.0057 3.6783-15.682 2.9519-23.049-2.4022-9.6577-8.9245-7.3452-13.345-14.496-21.606 9.1286 3.5136 16.258-4.3704 27.842 2.4144"/></path></defs><g style="transform:translate(50%,50%);animation:apricot-tree_animation_growth 4s;animation-fill-mode:forwards"><g id="g21"><path class="apricot-tree__trunk" d="M-32.169 23.912c-3.4237 24.236 13.116 130.17 34.825 154.43 6.6159 13.639 9.1033 97.934 4.1861 117.6l-14.439-.64515c4.4385-20.431 6.3931-97.861.40636-109.7-17.266-28.85-39.415-138.93-24.978-161.69z" fill="#180f09"/><use xlink:href="#sheet_size_big"/><use transform="rotate(253.04 -32.733 29.12)" xlink:href="#sheet_size_big"/><use xlink:href="#apricot"/><use transform="translate(-34.21 18.709)" xlink:href="#apricot"/><use transform="translate(-3.2072 57.196)" xlink:href="#apricot"/><use transform="rotate(101.44 38.598 106.3)" xlink:href="#sheet_size_small"/><use transform="rotate(124.76 34.627 97.501)" xlink:href="#sheet_size_small"/></g><g style="animation-duration:3s;animation-name:apricot-tree__branch_animation_growth"><path class="apricot-tree__branch1" d="M77.939 131.72c-6.0808 11.59-18.129 26.492-38.531 33.786-26.625 8.7488-25.897 7.7725-41.69 14.446l1.0663 7.414c18.959-7.9974 38.919-12.74 48.972-18.734 16.278-9.3632 25.385-16.892 30.183-36.912z" fill="#180f09"/><use transform="rotate(-29.55 227.18 -129.27)" xlink:href="#sheet_size_big"/><use transform="rotate(85.764 -35.093 138.57)" xlink:href="#sheet_size_big"/><use transform="translate(47.039 161.43)" xlink:href="#apricot"/><use transform="translate(88.733 137.38)" xlink:href="#apricot"/><use transform="rotate(250.78 50.967 165.55)" xlink:href="#sheet_size_small"/><use xlink:href="#sheet_size_small"/></g><g style="animation-duration:1.5s;animation-name:apricot-tree__branch_animation_growth"><path d="M-49.426 186.9c1.6845 5.292 13.151 13.458 24.936 15.768 15.888 3.9947 12.343 2.5273 21.767 5.5744l.53012 4.0663c-11.313-3.6516-23.224-5.8171-29.223-8.5542-9.7137-4.6158-16.703-7.0321-18.011-16.854z" fill="#180f09"/><use transform="rotate(-99.17 29.072 114.9)" xlink:href="#sheet_size_big"/><use transform="translate(-20.312 181.21)" xlink:href="#apricot"/><use transform="rotate(-88.488 19.212 225.69)" xlink:href="#sheet_size_small"/><use transform="rotate(51.768 -30.016 105.17)" xlink:href="#sheet_size_small"/></g><g style="animation-duration:1.5s;animation-name:apricot-tree__branch_animation_growth"><path class="apricot-tree__branch3" d="M-80.901 99.211c4.5337 7.1815 13.517 16.415 28.727 20.935 19.851 5.421 19.308 4.816 31.083 8.951l-.79504 4.5939c-14.135-4.9554-29.017-7.8939-36.512-11.608-12.137-5.8017-18.927-10.467-22.503-22.871z" fill="#180f09"/><use transform="rotate(223.61 -41.408 72.922)" xlink:href="#sheet_size_big"/><use transform="rotate(67.667 -58.258 -13.691)" xlink:href="#sheet_size_medium"/><use transform="translate(-57.73 90.337)" xlink:href="#apricot"/><use transform="translate(-17.105 112.79)" xlink:href="#apricot"/><use transform="rotate(-94.37 -7.3076 181.36)" xlink:href="#sheet_size_small"/></g><g style="animation-duration:2s;animation-name:apricot-tree__branch_animation_growth"><path class="apricot-tree__branch4" d="M40.897 48.562c-3.0217 11.717-16.54 43.629-31.751 48.149-17.583 7.6888-23.843 9.3517-35.619 13.487l1.551 4.5939c14.135-4.9554 33.552-11.674 41.047-15.388 16.672-11.849 24.218-38.437 24.771-50.842z" fill="#180f09"/><use transform="rotate(22.542 -54.041 222.28)" xlink:href="#sheet_size_big"/><use xlink:href="#sheet_size_medium"/><use transform="translate(42.229 25.123)" xlink:href="#apricot"/><use transform="translate(76.974 27.796)" xlink:href="#apricot"/><use transform="translate(42.229 76.439)" xlink:href="#apricot"/><use transform="translate(14.967 90.872)" xlink:href="#apricot"/></g></g></svg>
